:SAMPLES-PER-SECOND 30
:FULLY-SPECIFIED
:DEGREES
1189
root  8.05339 39.7221 -1.1168 -133.887 -87.4768 176.245
RightUpLeg  -49.4996 -5.33191 -4.43155
RightLeg  -7.41841 -13.2465 6.24792
RightFoot  15.6669 0.623295 -2.14086
RightToes  -4.65663e-010 0 -3.6325e-017
Spine  60.6433 -5.80939 6.29818
Spine1  23.438 2.32256 -8.97445
HEad  -4.77213 -7.05935 0.938421
LeftShoulder1  5.15854 -14.8801 -21.6825
LeftArm  -123.064 -71.2923 92.396
LeftForeArm  32.9662 1.00423 -8.30591
LeftHand  -0.244104 0.0205437 5.32207
RightShoulder  1.19121 7.82692 2.40416
RightArm  -108.536 72.7765 -63.6172
RightForeArm  19.0667 -6.16185 1.693
RightHand  -0.175452 -3.0334 -8.08794
LeftUpLeg  -49.2675 2.52654 3.39998
LeftLeg  -7.04119 18.983 -7.78959
LeftFoot  13.5488 -1.45831 6.22364
LeftToes  4.18335e-011 1.59304e-011 3.38507e-012
1190
root  8.14819 39.7655 -1.09603 -137.531 -87.6637 178.528
RightUpLeg  -48.0772 -5.30474 -4.37965
RightLeg  -7.59252 -13.2286 6.28459
RightFoot  15.8069 0.594396 -2.00545
RightToes  -4.65663e-010 0 -3.6325e-017
Spine  60.7959 -5.91394 6.57549
Spine1  23.5561 2.40584 -8.84099
HEad  -4.85231 -7.60696 0.700469
LeftShoulder1  5.28533 -15.1018 -22.0489
LeftArm  -121.15 -72.1482 90.0814
LeftForeArm  33.2211 0.192258 -8.30255
LeftHand  -0.244104 0.0205437 5.32207
RightShoulder  1.28771 8.18197 2.97723
RightArm  -105.879 73.123 -61.4058
RightForeArm  18.223 -6.21842 2.00779
RightHand  -0.229678 -2.64307 -9.26496
LeftUpLeg  -47.8859 2.65586 3.37419
LeftLeg  -7.2317 18.5844 -7.87274
LeftFoot  13.7194 -1.4821 6.28187
LeftToes  4.18335e-011 1.59304e-011 3.38507e-012
1191
root  8.29439 39.8057 -1.06152 -136.849 -87.4857 176.392
RightUpLeg  -46.7976 -5.52964 -4.41791
RightLeg  -7.57567 -12.7089 6.3398
RightFoot  16.0343 0.645238 -2.19
RightToes  -4.65663e-010 0 -3.6325e-017
Spine  60.4901 -5.78594 6.58498
Spine1  23.6279 2.39486 -8.57534
HEad  -4.85149 -7.94124 0.414192
LeftShoulder1  5.56453 -15.554 -22.8812
LeftArm  -117.096 -73.4407 85.6552
LeftForeArm  33.3031 -1.0489 -8.38568
LeftHand  -0.244104 0.0205437 5.32207
RightShoulder  1.44652 8.67946 3.94365
RightArm  -101.718 73.7707 -57.5803
RightForeArm  17.0797 -6.28954 2.40808
RightHand  -0.40819 -1.29448 -11.4207
LeftUpLeg  -46.4521 2.44767 3.25919
LeftLeg  -7.46006 18.7379 -7.78792
LeftFoot  13.928 -1.49536 6.28157
LeftToes  4.18335e-011 1.59304e-011 3.38507e-012
1192
root  8.48171 39.8416 -1.02471 -134.305 -87.0661 172.291
RightUpLeg  -45.5942 -5.89806 -4.51705
RightLeg  -7.39844 -11.8967 6.387
RightFoot  16.2557 0.709059 -2.4253
RightToes  -4.65663e-010 0 -3.6325e-017
Spine  59.6751 -5.3949 6.41455
Spine1  23.6203 2.35755 -8.08283
HEad  -4.69673 -8.29093 -0.00437089
LeftShoulder1  6.0255 -16.2101 -24.3123
LeftArm  -110.352 -75.1665 78.2391
LeftForeArm  33.3188 -2.49176 -8.46573
LeftHand  -0.244104 0.0205437 5.32207
RightShoulder  1.66284 9.26973 5.23585
RightArm  -95.0168 74.6589 -51.0559
RightForeArm  15.9334 -6.38929 2.85171
RightHand  -0.700844 0.434373 -14.024
LeftUpLeg  -44.9988 2.10056 3.07258
LeftLeg  -7.60859 19.1816 -7.63026
LeftFoot  14.1304 -1.51109 6.29378
LeftToes  4.18335e-011 1.59304e-011 3.38507e-012
1193
root  8.69043 39.8903 -0.994323 -133.876 -86.7495 169.824
RightUpLeg  -43.8938 -6.19511 -4.60721
RightLeg  -7.19327 -11.1881 6.36914
RightFoot  16.3701 0.708877 -2.41077
RightToes  -4.65663e-010 0 -3.6325e-017
Spine  58.782 -4.96232 6.29728
Spine1  23.3916 2.33985 -7.46442
HEad  -4.4454 -8.60102 -0.543171
LeftShoulder1  6.63958 -16.9822 -26.2304
LeftArm  -98.8598 -76.99 65.8356
LeftForeArm  33.5488 -4.01488 -8.53096
LeftHand  -0.244104 0.0205437 5.32207
RightShoulder  1.94839 9.9856 6.83899
RightArm  -84.5567 75.4981 -40.6489
RightForeArm  15.3455 -6.28381 3.33372
RightHand  -1.00257 1.82287 -16.2568
LeftUpLeg  -43.159 1.99837 2.86021
LeftLeg  -7.52769 19.292 -7.57163
LeftFoot  14.2315 -1.53448 6.3681
LeftToes  4.18335e-011 1.59304e-011 3.38507e-012
1194
root  8.90983 39.9562 -0.963735 -134.805 -86.6092 168.133
RightUpLeg  -41.6283 -6.40631 -4.70002
RightLeg  -6.81352 -10.6423 6.21845
RightFoot  16.317 0.652896 -2.18975
RightToes  -4.65663e-010 0 -3.6325e-017
Spine  58.0127 -4.65957 6.2848
Spine1  22.875 2.29539 -6.94715
HEad  -4.22263 -8.59458 -1.05939
LeftShoulder1  7.33899 -17.7837 -28.3519
LeftArm  -80.3661 -77.9584 46.8205
LeftForeArm  34.055 -5.60634 -8.65773
LeftHand  -0.244104 0.0205437 5.32207
RightShoulder  2.31581 10.8186 8.77011
RightArm  -70.3452 75.7378 -26.4019
RightForeArm  15.3432 -5.29885 3.94445
RightHand  -1.20766 2.61601 -17.6259
LeftUpLeg  -40.8004 2.16298 2.62822
LeftLeg  -7.2229 18.9889 -7.62062
LeftFoot  14.1924 -1.54835 6.44029
LeftToes  4.18335e-011 1.59304e-011 3.38507e-012
